PathFileType	4	(X/Y/Z)	D:\TRACE\v60_Jaco2_6-2-23\BothDRS_Motion2_10-platform.trc
DataRate	CameraRate	NumFrames	NumMarkers	Units	OrigDataRate	OrigDataStartFrame	OrigNumFrames
100.00	100.00	      24	5	mm	100.00	3751	      7500
Frame#	Time	Left_Front			Right_Front			Left_Aft			Right_Aft			Post			
		X1	Y1	Z1	X2	Y2	Z2	X3	Y3	Z3	X4	Y4	Z4	X5	Y5	Z5	

3751	37.500	-750.40222	61.74862	-624.52411	819.81592	62.47764	-629.98834	-657.79156	-29.62924	507.21371	784.13708	-31.20172	516.64655	37.08218	1381.82275	-850.99701	
3752	37.510	-750.29523	62.44117	-624.24200	819.76105	63.27515	-629.59467	-658.12024	-29.76804	507.01660	784.03857	-32.01982	516.49603	36.77597	1383.00964	-848.64948	
3753	37.520	-750.39893	63.22343	-623.97266	819.45111	64.09824	-629.27649	-658.31738	-30.13223	507.02948	783.52600	-32.25876	517.19873	36.66689	1383.99158	-845.96539	
3754	37.530	-750.75977	63.99275	-623.73584	819.25403	64.93980	-629.03613	-658.61407	-30.96771	507.17233	783.26373	-33.16508	517.38324	36.21172	1385.11316	-843.16364	
3755	37.540	-750.93854	64.70375	-623.46930	819.09381	65.74743	-628.63019	-658.83569	-31.48862	507.45471	783.30383	-33.77450	517.28186	35.95704	1385.98218	-840.34460	
3756	37.550	-751.29968	65.69270	-623.37897	818.67737	66.39798	-628.45593	-659.31860	-32.01936	507.62183	782.99835	-34.44062	517.27576	36.10474	1386.68884	-837.27008	
3757	37.560	-751.67249	66.33469	-623.08167	818.24384	67.03344	-628.33118	-659.72711	-32.57804	507.86395	782.01569	-34.52637	518.03918	34.80400	1387.69971	-833.98981	
3758	37.570	-752.13263	66.94448	-622.67401	817.87823	67.76574	-628.08160	-659.94989	-32.93251	508.16223	782.26764	-35.24244	517.39899	34.53197	1388.26318	-830.68292	
3759	37.580	-752.32819	67.42556	-622.21893	817.82672	68.49927	-627.79285	-660.51733	-32.90225	507.81003	781.79840	-35.84203	517.48425	34.46248	1388.82336	-827.61597	
3760	37.590	-752.65192	67.77060	-622.09705	817.33588	69.10466	-627.69086	-660.86255	-33.48242	508.27792	780.97766	-36.15499	518.12732	34.05811	1389.61475	-825.37451	
3761	37.600	-753.08643	68.40462	-622.00275	816.84277	69.53361	-627.61938	-661.15100	-34.04193	508.33701	780.84271	-36.44561	518.31244	33.34645	1390.33972	-823.61816	
3762	37.610	-753.30426	69.22562	-622.06036	816.28705	70.15699	-627.39972	-661.38788	-34.19231	508.29883	781.03302	-36.95972	517.99628	33.09052	1390.90125	-823.21399	
3763	37.620	-753.76453	69.83109	-621.89746	815.84955	70.52094	-627.20221	-662.07697	-34.56545	508.24496	780.47748	-37.11869	518.15784	32.20496	1391.77832	-823.64709	
3764	37.630	-754.46680	70.10997	-621.81390	815.49878	70.65764	-627.06055	-662.40533	-34.99405	508.36703	780.01654	-37.26779	518.48413	32.36894	1392.24060	-824.14111	
3765	37.640	-755.09686	70.41008	-621.66357	815.02997	70.80769	-626.98059	-662.90015	-35.45112	508.64331	778.82928	-36.35319	520.37488	32.05545	1392.84973	-824.55701	
3766	37.650	-755.44202	70.77107	-621.51581	814.56909	71.17908	-626.78845	-663.21625	-35.76076	508.78058	778.38037	-40.09969	516.63110	31.84032	1393.30798	-824.90668	
3767	37.660	-755.80029	71.04887	-621.39496	814.24677	71.46667	-626.61896	-663.58179	-36.50240	508.88846	778.30328	-39.11173	518.06134	31.30505	1394.03870	-825.35181	
3768	37.670	-756.37317	71.40910	-621.08606	813.77844	71.72627	-626.43011	-664.69055	-35.82154	508.98004	778.10022	-38.81151	518.31567	30.76597	1395.00049	-825.14618	
3769	37.680	-756.68884	71.84934	-620.79047	813.00043	72.37420	-626.26459	-664.78424	-36.58046	508.94373	777.72632	-39.12920	518.40009	29.98350	1395.61597	-824.34760	
3770	37.690	-757.36023	72.04258	-620.72449	812.46997	72.89861	-626.13855	-665.48633	-36.68060	508.98260	776.00470	-38.71807	519.40491	29.64341	1395.74036	-823.50708	
3771	37.700	-758.17883	72.11625	-620.54089	812.11182	72.89536	-626.12653	-665.93927	-36.98820	509.09103	775.71350	-39.31112	519.12506	28.95217	1395.96912	-822.14758	
3772	37.710	-758.62549	72.32140	-620.70752	811.47754	72.94646	-626.03308	-666.50287	-37.11994	509.10577	775.90082	-39.68081	518.74866	28.14178	1396.18396	-820.64929	
3773	37.720	-759.20300	72.53312	-620.80396	810.85034	73.09139	-625.97839	-667.05017	-37.15107	509.09946	775.14990	-39.50227	518.87524	27.83459	1396.07703	-818.75800	
3774	37.730	-759.80615	72.28532	-620.55151	810.17041	73.14219	-626.00470	-667.62396	-37.00077	509.14752	774.42926	-39.48271	518.74390	27.12464	1395.71155	-816.99359	
